<svg width="14" height="15" viewBox="0 0 14 15" fill="none" xmlns="http://www.w3.org/2000/svg">
<path d="M9.44352 1.6665H4.55518C2.43185 1.6665 1.16602 2.93234 1.16602 5.05567V9.93817C1.16602 12.0673 2.43185 13.3332 4.55518 13.3332H9.43768C11.561 13.3332 12.8268 12.0673 12.8268 9.944V5.05567C12.8327 2.93234 11.5668 1.6665 9.44352 1.6665ZM8.04352 9.24984C8.21268 9.419 8.21268 9.699 8.04352 9.86817C7.95602 9.95567 7.84518 9.9965 7.73435 9.9965C7.62352 9.9965 7.51268 9.95567 7.42518 9.86817L5.36602 7.809C5.19685 7.63984 5.19685 7.35984 5.36602 7.19067L7.42518 5.1315C7.59435 4.96234 7.87435 4.96234 8.04352 5.1315C8.21268 5.30067 8.21268 5.58067 8.04352 5.74984L6.29352 7.49984L8.04352 9.24984Z" fill="#00ADB5"/>
</svg>
