<svg width="20" height="20" viewBox="0 0 20 20" fill="none" xmlns="http://www.w3.org/2000/svg">
<path d="M18.1746 3.28323C16.8913 6.48323 13.6746 10.8332 10.9829 12.9916L9.34128 14.3082C9.13294 14.4582 8.92461 14.5916 8.69128 14.6832C8.69128 14.5332 8.68294 14.3666 8.65794 14.2082C8.56628 13.5082 8.24961 12.8582 7.69128 12.2999C7.12461 11.7332 6.43294 11.3999 5.72461 11.3082C5.55794 11.2999 5.39128 11.2832 5.22461 11.2999C5.31628 11.0416 5.45794 10.7999 5.63294 10.5999L6.93294 8.95823C9.08294 6.26656 13.4496 3.03323 16.6413 1.75823C17.1329 1.5749 17.6079 1.70823 17.9079 2.01656C18.2246 2.3249 18.3746 2.7999 18.1746 3.28323Z" stroke="#292D32" stroke-linecap="round" stroke-linejoin="round"/>
<path d="M8.69173 14.6832C8.69173 15.5998 8.34173 16.4748 7.6834 17.1415C7.17507 17.6498 6.4834 17.9998 5.6584 18.1082L3.6084 18.3332C2.49173 18.4582 1.5334 17.5082 1.66673 16.3748L1.89173 14.3248C2.09173 12.4998 3.61673 11.3332 5.2334 11.2998C5.40007 11.2915 5.57507 11.2998 5.7334 11.3082C6.44173 11.3998 7.1334 11.7248 7.70007 12.2998C8.2584 12.8582 8.57507 13.5082 8.66673 14.2082C8.67507 14.3665 8.69173 14.5248 8.69173 14.6832Z" stroke="#292D32" stroke-linecap="round" stroke-linejoin="round"/>
<path d="M11.8674 12.0584C11.8674 9.88337 10.1008 8.1167 7.92578 8.1167" stroke="#292D32" stroke-linecap="round" stroke-linejoin="round"/>
</svg>
