<svg width="37" height="37" viewBox="0 0 37 37" fill="none" xmlns="http://www.w3.org/2000/svg">
<circle cx="18.5" cy="18.5" r="17.5" stroke="#CACACA" stroke-width="2"/>
<mask id="path-2-inside-1_6787_25691" fill="white">
<path d="M18.5 0.990964C18.5 0.44367 18.944 -0.00276822 19.4906 0.0265289C23.0062 0.214997 26.4029 1.4036 29.2758 3.46234C32.4179 5.71388 34.7757 8.89305 36.0182 12.5534C37.2607 16.2137 37.3255 20.1713 36.2034 23.8703C35.0813 27.5693 32.8288 30.8239 29.7621 33.177C26.6954 35.5302 22.9687 36.8636 19.1053 36.9901C15.2419 37.1166 11.436 36.0297 8.22195 33.8822C5.00794 31.7347 2.54735 28.6343 1.18574 25.0166C-0.059269 21.7087 -0.328259 18.1202 0.399624 14.6755C0.512772 14.14 1.05893 13.8267 1.58757 13.9683C2.11621 14.11 2.42683 14.653 2.31713 15.1891C1.69436 18.233 1.94152 21.3982 3.04064 24.3185C4.25637 27.5486 6.45337 30.3168 9.32305 32.2343C12.1927 34.1517 15.591 35.1222 19.0405 35.0092C22.49 34.8963 25.8174 33.7057 28.5556 31.6047C31.2937 29.5036 33.3049 26.5977 34.3068 23.2949C35.3087 19.9922 35.2509 16.4586 34.1415 13.1904C33.0321 9.92226 30.9268 7.08367 28.1214 5.07334C25.5851 3.25585 22.5917 2.19788 19.4904 2.01164C18.9441 1.97883 18.5 1.53826 18.5 0.990964Z"/>
</mask>
<path d="M18.5 0.990964C18.5 0.44367 18.944 -0.00276822 19.4906 0.0265289C23.0062 0.214997 26.4029 1.4036 29.2758 3.46234C32.4179 5.71388 34.7757 8.89305 36.0182 12.5534C37.2607 16.2137 37.3255 20.1713 36.2034 23.8703C35.0813 27.5693 32.8288 30.8239 29.7621 33.177C26.6954 35.5302 22.9687 36.8636 19.1053 36.9901C15.2419 37.1166 11.436 36.0297 8.22195 33.8822C5.00794 31.7347 2.54735 28.6343 1.18574 25.0166C-0.059269 21.7087 -0.328259 18.1202 0.399624 14.6755C0.512772 14.14 1.05893 13.8267 1.58757 13.9683C2.11621 14.11 2.42683 14.653 2.31713 15.1891C1.69436 18.233 1.94152 21.3982 3.04064 24.3185C4.25637 27.5486 6.45337 30.3168 9.32305 32.2343C12.1927 34.1517 15.591 35.1222 19.0405 35.0092C22.49 34.8963 25.8174 33.7057 28.5556 31.6047C31.2937 29.5036 33.3049 26.5977 34.3068 23.2949C35.3087 19.9922 35.2509 16.4586 34.1415 13.1904C33.0321 9.92226 30.9268 7.08367 28.1214 5.07334C25.5851 3.25585 22.5917 2.19788 19.4904 2.01164C18.9441 1.97883 18.5 1.53826 18.5 0.990964Z" fill="#D9D9D9" stroke="#EE273A" stroke-width="4" mask="url(#path-2-inside-1_6787_25691)"/>
</svg>
