<svg width="10" height="11" viewBox="0 0 10 11" fill="none" xmlns="http://www.w3.org/2000/svg">
<path d="M2.08334 4.66634H2.91668C3.75001 4.66634 4.16668 4.24967 4.16668 3.41634V2.58301C4.16668 1.74967 3.75001 1.33301 2.91668 1.33301H2.08334C1.25001 1.33301 0.833344 1.74967 0.833344 2.58301V3.41634C0.833344 4.24967 1.25001 4.66634 2.08334 4.66634Z" stroke="#959595" stroke-miterlimit="10" stroke-linecap="round" stroke-linejoin="round"/>
<path d="M7.08334 4.66634H7.91668C8.75001 4.66634 9.16668 4.24967 9.16668 3.41634V2.58301C9.16668 1.74967 8.75001 1.33301 7.91668 1.33301H7.08334C6.25001 1.33301 5.83334 1.74967 5.83334 2.58301V3.41634C5.83334 4.24967 6.25001 4.66634 7.08334 4.66634Z" stroke="#959595" stroke-miterlimit="10" stroke-linecap="round" stroke-linejoin="round"/>
<path d="M7.08334 9.66634H7.91668C8.75001 9.66634 9.16668 9.24967 9.16668 8.41634V7.58301C9.16668 6.74967 8.75001 6.33301 7.91668 6.33301H7.08334C6.25001 6.33301 5.83334 6.74967 5.83334 7.58301V8.41634C5.83334 9.24967 6.25001 9.66634 7.08334 9.66634Z" stroke="#959595" stroke-miterlimit="10" stroke-linecap="round" stroke-linejoin="round"/>
<path d="M2.08334 9.66634H2.91668C3.75001 9.66634 4.16668 9.24967 4.16668 8.41634V7.58301C4.16668 6.74967 3.75001 6.33301 2.91668 6.33301H2.08334C1.25001 6.33301 0.833344 6.74967 0.833344 7.58301V8.41634C0.833344 9.24967 1.25001 9.66634 2.08334 9.66634Z" stroke="#959595" stroke-miterlimit="10" stroke-linecap="round" stroke-linejoin="round"/>
</svg>
