<svg width="17" height="17" viewBox="0 0 17 17" fill="none" xmlns="http://www.w3.org/2000/svg">
<path d="M13.6708 5.6098V9.25774C13.6708 11.4394 12.4241 12.3744 10.5541 12.3744H4.32784C4.00909 12.3744 3.70451 12.3461 3.42118 12.2823C3.24409 12.254 3.0741 12.2044 2.91827 12.1477C1.85577 11.7511 1.21118 10.8302 1.21118 9.25774V5.6098C1.21118 3.42814 2.45784 2.49316 4.32784 2.49316H10.5541C12.1408 2.49316 13.2812 3.16608 13.5858 4.70316C13.6353 4.98649 13.6708 5.27689 13.6708 5.6098Z" stroke="#8B8B8B" stroke-miterlimit="10" stroke-linecap="round" stroke-linejoin="round"/>
<path d="M15.7965 7.73477V11.3827C15.7965 13.5644 14.5498 14.4993 12.6798 14.4993H6.45354C5.92937 14.4993 5.4548 14.4285 5.04396 14.2727C4.20105 13.961 3.62729 13.3165 3.42188 12.2823C3.70521 12.3461 4.00979 12.3743 4.32854 12.3743H10.5548C12.4248 12.3743 13.6715 11.4394 13.6715 9.2577V5.60977C13.6715 5.27685 13.6431 4.97937 13.5865 4.70312C14.9323 4.98646 15.7965 5.9356 15.7965 7.73477Z" stroke="#8B8B8B" stroke-miterlimit="10" stroke-linecap="round" stroke-linejoin="round"/>
<path d="M7.43642 9.3074C8.46919 9.3074 9.30643 8.47017 9.30643 7.43739C9.30643 6.40462 8.46919 5.56738 7.43642 5.56738C6.40364 5.56738 5.56641 6.40462 5.56641 7.43739C5.56641 8.47017 6.40364 9.3074 7.43642 9.3074Z" stroke="#8B8B8B" stroke-miterlimit="10" stroke-linecap="round" stroke-linejoin="round"/>
<path d="M3.38574 5.87891V8.99559" stroke="#8B8B8B" stroke-miterlimit="10" stroke-linecap="round" stroke-linejoin="round"/>
<path d="M11.4902 5.87891V8.99559" stroke="#8B8B8B" stroke-miterlimit="10" stroke-linecap="round" stroke-linejoin="round"/>
</svg>
