<svg width="96" height="95" viewBox="0 0 96 95" fill="none" xmlns="http://www.w3.org/2000/svg">
<g id="vuesax/linear/emoji-sad">
<g id="emoji-sad">
<path id="Vector" d="M36.1253 87.0833H59.8753C79.667 87.0833 87.5837 79.1666 87.5837 59.375V35.625C87.5837 15.8333 79.667 7.91663 59.8753 7.91663H36.1253C16.3337 7.91663 8.41699 15.8333 8.41699 35.625V59.375C8.41699 79.1666 16.3337 87.0833 36.1253 87.0833Z" stroke="#B2B2B2" stroke-width="5" stroke-linecap="round" stroke-linejoin="round"/>
<path id="Vector_2" d="M28.208 34.6354C32.1663 30.677 38.6184 30.677 42.6163 34.6354" stroke="#B2B2B2" stroke-width="5" stroke-miterlimit="10" stroke-linecap="round" stroke-linejoin="round"/>
<path id="Vector_3" d="M53.3838 34.6354C57.3421 30.677 63.7942 30.677 67.7921 34.6354" stroke="#B2B2B2" stroke-width="5" stroke-miterlimit="10" stroke-linecap="round" stroke-linejoin="round"/>
<path id="Vector_4" d="M33.75 70.0625H62.25C64.2292 70.0625 65.8125 68.4792 65.8125 66.5C65.8125 56.6437 57.8562 48.6875 48 48.6875C38.1437 48.6875 30.1875 56.6437 30.1875 66.5C30.1875 68.4792 31.7708 70.0625 33.75 70.0625Z" stroke="#B2B2B2" stroke-width="5" stroke-miterlimit="10" stroke-linecap="round" stroke-linejoin="round"/>
</g>
</g>
</svg>
