<svg width="20" height="20" viewBox="0 0 20 20" fill="none" xmlns="http://www.w3.org/2000/svg">
<g id="vuesax/linear/more">
<g id="more">
<path id="Vector" d="M11.667 4.16667C11.667 3.25 10.917 2.5 10.0003 2.5C9.08366 2.5 8.33366 3.25 8.33366 4.16667C8.33366 5.08333 9.08366 5.83333 10.0003 5.83333C10.917 5.83333 11.667 5.08333 11.667 4.16667Z" stroke="#666666" stroke-width="1.5"/>
<path id="Vector_2" d="M11.667 15.8333C11.667 14.9166 10.917 14.1666 10.0003 14.1666C9.08366 14.1666 8.33366 14.9166 8.33366 15.8333C8.33366 16.75 9.08366 17.5 10.0003 17.5C10.917 17.5 11.667 16.75 11.667 15.8333Z" stroke="#666666" stroke-width="1.5"/>
<path id="Vector_3" d="M11.667 10C11.667 9.08337 10.917 8.33337 10.0003 8.33337C9.08366 8.33337 8.33366 9.08337 8.33366 10C8.33366 10.9167 9.08366 11.6667 10.0003 11.6667C10.917 11.6667 11.667 10.9167 11.667 10Z" stroke="#666666" stroke-width="1.5"/>
</g>
</g>
</svg>
